<svg xmlns="http://www.w3.org/2000/svg" xmlns:xlink="http://www.w3.org/1999/xlink" version="1.1" width="1000" height="1000" viewBox="0 0 1000 1000" xml:space="preserve">
<desc>Created with Fabric.js 3.5.0</desc>
<defs>
</defs>
<rect x="0" y="0" width="100%" height="100%" fill="#ffffff"/>
<g transform="matrix(-2.4178 0 0 2.4178 500.0009 500.0009)" id="710140">
<g style="" vector-effect="non-scaling-stroke">
		<g transform="matrix(1 0 0 1 131.9405 4.078)">
<path style="stroke: rgb(58,124,195); stroke-width: 7.5; stroke-dasharray: none; stroke-linecap: round; stroke-dashoffset: 0; stroke-linejoin: miter; stroke-miterlimit: 4; is-custom-font: none; font-file-url: none; fill: none; fill-rule: nonzero; opacity: 1;" transform=" translate(-310.9405, -192.078)" d="M 294.374 187.638 L 327.507 196.518" strokeLinecap="round"/>
</g>
		<g transform="matrix(1 0 0 1 128.007 17.5655)">
<path style="stroke: rgb(2,81,199); stroke-width: 7.5; stroke-dasharray: none; stroke-linecap: round; stroke-dashoffset: 0; stroke-linejoin: miter; stroke-miterlimit: 4; is-custom-font: none; font-file-url: none; fill: none; fill-rule: nonzero; opacity: 1;" transform=" translate(-307.007, -205.5655)" d="M 277.362 197.621 L 336.652 213.51" strokeLinecap="round"/>
</g>
		<g transform="matrix(1 0 0 1 123.9825 31.3645)">
<path style="stroke: rgb(58,124,195); stroke-width: 7.5; stroke-dasharray: none; stroke-linecap: round; stroke-dashoffset: 0; stroke-linejoin: miter; stroke-miterlimit: 4; is-custom-font: none; font-file-url: none; fill: none; fill-rule: nonzero; opacity: 1;" transform=" translate(-302.9825, -219.3645)" d="M 268.306 208.521 L 337.659 230.208" strokeLinecap="round"/>
</g>
		<g transform="matrix(1 0 0 1 119.9305 45.258)">
<path style="stroke: rgb(221,17,51); stroke-width: 7.5; stroke-dasharray: none; stroke-linecap: round; stroke-dashoffset: 0; stroke-linejoin: miter; stroke-miterlimit: 4; is-custom-font: none; font-file-url: none; fill: none; fill-rule: nonzero; opacity: 1;" transform=" translate(-298.9305, -233.258)" d="M 260.728 221.312 L 337.133 245.204" strokeLinecap="round"/>
</g>
		<g transform="matrix(1 0 0 1 115.9855 58.783)">
<path style="stroke: rgb(221,17,51); stroke-width: 7.5; stroke-dasharray: none; stroke-linecap: round; stroke-dashoffset: 0; stroke-linejoin: miter; stroke-miterlimit: 4; is-custom-font: none; font-file-url: none; fill: none; fill-rule: nonzero; opacity: 1;" transform=" translate(-294.9855, -246.783)" d="M 281.035 243.044 L 308.936 250.522" strokeLinecap="round"/>
</g>
		<g transform="matrix(1 0 0 1 112.1125 72.061)">
<path style="stroke: rgb(58,124,195); stroke-width: 7.5; stroke-dasharray: none; stroke-linecap: round; stroke-dashoffset: 0; stroke-linejoin: miter; stroke-miterlimit: 4; is-custom-font: none; font-file-url: none; fill: none; fill-rule: nonzero; opacity: 1;" transform=" translate(-291.1125, -260.061)" d="M 265.647 252.098 L 316.578 268.024" strokeLinecap="round"/>
</g>
		<g transform="matrix(1 0 0 1 108.1095 85.786)">
<path style="stroke: rgb(58,124,195); stroke-width: 7.5; stroke-dasharray: none; stroke-linecap: round; stroke-dashoffset: 0; stroke-linejoin: miter; stroke-miterlimit: 4; is-custom-font: none; font-file-url: none; fill: none; fill-rule: nonzero; opacity: 1;" transform=" translate(-287.1095, -273.786)" d="M 248.393 261.679 L 325.826 285.893" strokeLinecap="round"/>
</g>
		<g transform="matrix(1 0 0 1 104.065 99.6525)">
<path style="stroke: rgb(1,155,165); stroke-width: 7.5; stroke-dasharray: none; stroke-linecap: round; stroke-dashoffset: 0; stroke-linejoin: miter; stroke-miterlimit: 4; is-custom-font: none; font-file-url: none; fill: none; fill-rule: nonzero; opacity: 1;" transform=" translate(-283.065, -287.6525)" d="M 250.288 277.403 L 315.842 297.902" strokeLinecap="round"/>
</g>
		<g transform="matrix(1 0 0 1 100.155 113.059)">
<path style="stroke: rgb(58,124,195); stroke-width: 7.5; stroke-dasharray: none; stroke-linecap: round; stroke-dashoffset: 0; stroke-linejoin: miter; stroke-miterlimit: 4; is-custom-font: none; font-file-url: none; fill: none; fill-rule: nonzero; opacity: 1;" transform=" translate(-279.155, -301.059)" d="M 264.152 296.367 L 294.158 305.751" strokeLinecap="round"/>
</g>
		<g transform="matrix(1 0 0 1 96.212 126.578)">
<path style="stroke: rgb(58,124,195); stroke-width: 7.5; stroke-dasharray: none; stroke-linecap: round; stroke-dashoffset: 0; stroke-linejoin: miter; stroke-miterlimit: 4; is-custom-font: none; font-file-url: none; fill: none; fill-rule: nonzero; opacity: 1;" transform=" translate(-275.212, -314.578)" d="M 236.634 302.514 L 313.79 326.642" strokeLinecap="round"/>
</g>
		<g transform="matrix(1 0 0 1 92.3215 139.917)">
<path style="stroke: rgb(58,124,195); stroke-width: 7.5; stroke-dasharray: none; stroke-linecap: round; stroke-dashoffset: 0; stroke-linejoin: miter; stroke-miterlimit: 4; is-custom-font: none; font-file-url: none; fill: none; fill-rule: nonzero; opacity: 1;" transform=" translate(-271.3215, -327.917)" d="M 265.598 326.127 L 277.045 329.707" strokeLinecap="round"/>
</g>
		<g transform="matrix(1 0 0 1 88.5375 152.8915)">
<path style="stroke: rgb(221,17,51); stroke-width: 7.5; stroke-dasharray: none; stroke-linecap: round; stroke-dashoffset: 0; stroke-linejoin: miter; stroke-miterlimit: 4; is-custom-font: none; font-file-url: none; fill: none; fill-rule: nonzero; opacity: 1;" transform=" translate(-267.5375, -340.8915)" d="M 247.778 334.713 L 287.297 347.07" strokeLinecap="round"/>
</g>
		<g transform="matrix(1 0 0 1 84.635 166.271)">
<path style="stroke: rgb(221,17,51); stroke-width: 7.5; stroke-dasharray: none; stroke-linecap: round; stroke-dashoffset: 0; stroke-linejoin: miter; stroke-miterlimit: 4; is-custom-font: none; font-file-url: none; fill: none; fill-rule: nonzero; opacity: 1;" transform=" translate(-263.635, -354.271)" d="M 237.013 345.946 L 290.257 362.596" strokeLinecap="round"/>
</g>
</g>
</g>
</svg>